<svg xmlns="http://www.w3.org/2000/svg" xmlns:xlink="http://www.w3.org/1999/xlink" xmlns:lucid="lucid" width="1680" height="1320"><g transform="translate(-139.5 0)" lucid:page-tab-id="0_0"><path d="M0 0h1870.4v1323.2H0z" fill="#fff"/><path d="M159.5 242c0-16.57 13.43-30 30-30h1580c16.57 0 30 13.43 30 30v1028c0 16.57-13.43 30-30 30h-1580c-16.57 0-30-13.43-30-30z" stroke="#474747" fill="none"/><path d="M267.5 214.4v3.54c0 6.42-7.1 13.05-15.76 13.05h-46.48c-8.66 0-15.75-6.64-15.75-13.06v-3.54z" fill="#9d5125"/><path d="M219.53 180c8.03 0 14.82 4.4 18.17 11.67 4.6-3.14 10.92-1.98 14.04 2.65 1.17 1.64 1.7 3.32 1.8 5.3 7.87.68 13.95 8.25 13.95 14.27v1.3c0 6.45-7.1 13-15.76 13h-46.5c-8.64 0-15.74-6.55-15.74-13v-1.3c0-5.02 4.2-11.87 10.06-13.56v-.57c.08-10.95 8.97-19.82 19.97-19.77z" fill="#f58535"/><path d="M208.4 203.13h3.08l3.1 14.58 3.32-14.54h3.1l-4.6 18.2h-3.7zM222.87 203.13h5.77c3.5 0 5.04 2.2 5.04 5.3 0 3.1-1.9 5.4-5.33 5.4h-2.57v7.53h-2.9zm2.9 8.5h2.08c1.56 0 2.9-.83 2.9-3.14 0-1.98-.78-3.17-3.1-3.17h-1.87zM247.3 214.83v.38c0 3.32-1.3 6.52-5.6 6.52-4.6 0-6.04-2.97-6.04-9.47s1.43-9.46 6.05-9.46c5.2 0 5.54 3.8 5.54 5.7v.37h-2.9v-.3c0-1.7-.5-3.64-2.6-3.57-2.08.08-3.1 1.35-3.1 7.22 0 5.87.92 7.3 3.14 7.3 2.42 0 2.7-2.7 2.7-4.42v-.3z" fill="#fff"/><use xlink:href="#a" transform="matrix(1,0,0,1,159.5,1270) translate(780.725 12.799999999999999)"/><use xlink:href="#b" transform="matrix(1,0,0,1,159.5,1270) translate(822.325 12.799999999999999)"/><path d="M239.5 410c0-16.57 13.43-30 30-30H850c16.57 0 30 13.43 30 30v820c0 16.57-13.43 30-30 30H269.5c-16.57 0-30-13.43-30-30z" fill="none"/><path d="M254.54 384.1l3.17-1.7 4.72-1.56 4.93-.76 2.15-.08h14.88m14.9 0h29.76m14.88 0h29.77m14.88 0h29.77m14.88 0H463m14.88 0h29.77m14.9 0h29.76m14.9 0h29.76m14.9 0h29.76m14.88 0h29.77m14.88 0h29.77m14.9 0h29.76m14.88 0h29.77m14.9 0H850l5 .42 4.82 1.22 4.54 2 .6.42m10.95 10.98l1.7 3.17 1.56 4.72.76 4.93.08 2.15v15.2m0 15.17v30.37m0 15.2v30.36m0 15.18v30.37m0 15.2v30.36m0 15.2v30.36m0 15.2v30.36m0 15.18v30.37m0 15.2v30.36m0 15.18v30.4m0 15.17v30.37m0 15.2v30.36m0 15.18v30.37m0 15.2v30.36m0 15.2v30.36m0 15.2v30.36m0 15.18v30.37m0 15.2v30.36m0 15.18v15.2l-.42 5-1.22 4.82-2 4.54-.42.6m-10.98 10.95l-3.17 1.7-4.72 1.56-4.93.76-2.15.08h-14.88m-14.9 0h-29.76m-14.88 0H745.8m-14.88 0h-29.77m-14.88 0H656.5m-14.88 0h-29.77m-14.9 0H567.2m-14.9 0h-29.76m-14.9 0H477.9m-14.88 0h-29.77m-14.88 0h-29.77m-14.9 0h-29.76m-14.88 0h-29.77m-14.9 0H269.5l-5-.42-4.82-1.22-4.54-2-.6-.42m-10.95-10.98l-1.7-3.17-1.56-4.72-.76-4.93-.08-2.15v-15.2m0-15.17v-30.37m0-15.2v-30.36m0-15.18v-30.37m0-15.2v-30.36m0-15.2v-30.36m0-15.2V941.5m0-15.18v-30.37m0-15.2v-30.36m0-15.18v-30.4m0-15.17v-30.37m0-15.2V713.7m0-15.18v-30.37m0-15.2V622.6m0-15.2v-30.36m0-15.2V531.5m0-15.18v-30.37m0-15.2v-30.36m0-15.18V410l.42-5 1.22-4.82 2-4.54.42-.6" stroke="#f7981f" stroke-width="3" fill="none"/><use xlink:href="#c" transform="matrix(1,0,0,1,239.5,1230) translate(247.825 12.799999999999999)"/><use xlink:href="#d" transform="matrix(1,0,0,1,239.5,1230) translate(337.225 12.799999999999999)"/><use xlink:href="#e" transform="matrix(1,0,0,1,239.5,1230) translate(383.175 12.799999999999999)"/><path d="M1199.5 410c0-16.57 13.43-30 30-30h460c16.57 0 30 13.43 30 30v820c0 16.57-13.43 30-30 30h-460c-16.57 0-30-13.43-30-30z" fill="none"/><path d="M1214.54 384.1l3.17-1.7 4.72-1.56 4.93-.76 2.15-.08h15.33m15.34 0h30.66m15.34 0h30.66m15.34 0h30.66m15.34 0h30.66m15.34 0h30.66m15.34 0h30.66m15.34 0h30.66m15.34 0h30.66m15.34 0h30.66m15.34 0h15.33l5 .42 4.82 1.22 4.54 2 .6.42m10.95 10.98l1.7 3.17 1.56 4.72.76 4.93.08 2.15v15.2m0 15.17v30.37m0 15.2v30.36m0 15.18v30.37m0 15.2v30.36m0 15.2v30.36m0 15.2v30.36m0 15.18v30.37m0 15.2v30.36m0 15.18v30.4m0 15.17v30.37m0 15.2v30.36m0 15.18v30.37m0 15.2v30.36m0 15.2v30.36m0 15.2v30.36m0 15.18v30.37m0 15.2v30.36m0 15.18v15.2l-.42 5-1.22 4.82-2 4.54-.42.6m-10.98 10.95l-3.17 1.7-4.72 1.56-4.93.76-2.15.08h-15.33m-15.34 0h-30.66m-15.34 0h-30.66m-15.34 0h-30.66m-15.34 0h-30.66m-15.34 0h-30.66m-15.34 0h-30.66m-15.34 0h-30.66m-15.34 0h-30.66m-15.34 0h-30.66m-15.34 0h-15.33l-5-.42-4.82-1.22-4.54-2-.6-.42m-10.95-10.98l-1.7-3.17-1.56-4.72-.76-4.93-.08-2.15v-15.2m0-15.17v-30.37m0-15.2v-30.36m0-15.18v-30.37m0-15.2v-30.36m0-15.2v-30.36m0-15.2V941.5m0-15.18v-30.37m0-15.2v-30.36m0-15.18v-30.4m0-15.17v-30.37m0-15.2V713.7m0-15.18v-30.37m0-15.2V622.6m0-15.2v-30.36m0-15.2V531.5m0-15.18v-30.37m0-15.2v-30.36m0-15.18V410l.42-5 1.22-4.82 2-4.54.42-.6" stroke="#f7981f" stroke-width="3" fill="none"/><use xlink:href="#c" transform="matrix(1,0,0,1,1199.5,1230) translate(187.325 12.799999999999999)"/><use xlink:href="#d" transform="matrix(1,0,0,1,1199.5,1230) translate(276.725 12.799999999999999)"/><use xlink:href="#f" transform="matrix(1,0,0,1,1199.5,1230) translate(322.675 12.799999999999999)"/><path d="M299.5 950c0-16.57 13.43-30 30-30h1320c16.57 0 30 13.43 30 30v140c0 16.57-13.43 30-30 30h-1320c-16.57 0-30-13.43-30-30z" stroke="#474747" stroke-width="3" fill="none"/><path d="M299.5 950c0-16.57 13.43-30 30-30h1320c16.57 0 30 13.43 30 30v140c0 16.57-13.43 30-30 30h-1320c-16.57 0-30-13.43-30-30z" fill="none"/><path d="M314.54 924.1l3.17-1.7 4.72-1.56 4.93-.76 2.15-.08h15.17m15.17 0h30.35m15.16 0h30.35m15.18 0h30.34m15.18 0h30.34m15.17 0h30.36m15.17 0h30.35m15.17 0h30.34m15.17 0h30.34m15.18 0h30.35m15.17 0h30.34m15.18 0h30.34m15.17 0h30.35m15.17 0h30.35m15.17 0h30.34m15.2 0h30.33m15.17 0h30.35m15.17 0h30.35m15.17 0h30.34m15.18 0h30.34m15.17 0h30.35m15.17 0h30.33m15.18 0h30.35m15.17 0h30.35m15.17 0h30.35m15.16 0h30.34m15.18 0h30.34m15.17 0h30.34m15.17 0h30.36m15.17 0h15.17l5 .42 4.82 1.22 4.54 2 .6.42m10.95 10.98l1.7 3.17 1.56 4.72.76 4.93.08 2.15v15.56m0 15.55v31.12m0 15.56v31.1m0 15.56V1090l-.42 5-1.22 4.82-2 4.54-.42.6m-10.98 10.95l-3.17 1.7-4.72 1.56-4.93.76-2.15.08h-15.17m-15.17 0h-30.35m-15.16 0h-30.35m-15.18 0h-30.34m-15.18 0h-30.34m-15.17 0h-30.36m-15.17 0h-30.35m-15.17 0h-30.34m-15.17 0h-30.34m-15.18 0h-30.35m-15.17 0h-30.34m-15.18 0h-30.34m-15.17 0h-30.35m-15.17 0h-30.35m-15.17 0H997.1m-15.2 0h-30.33m-15.17 0h-30.35m-15.17 0h-30.35m-15.17 0h-30.34m-15.18 0H769.5m-15.17 0h-30.35m-15.17 0h-30.33m-15.18 0h-30.35m-15.17 0h-30.35m-15.17 0H541.9m-15.16 0H496.4m-15.18 0h-30.34m-15.17 0h-30.34m-15.17 0h-30.36m-15.17 0H329.5l-5-.42-4.82-1.22-4.54-2-.6-.42m-10.95-10.98l-1.7-3.17-1.56-4.72-.76-4.93-.08-2.15v-15.56m0-15.55v-31.12m0-15.56v-31.1m0-15.56V950l.42-5 1.22-4.82 2-4.54.42-.6" stroke="red" stroke-width="3" fill="none"/><use xlink:href="#g" transform="matrix(1,0,0,1,299.5,1090) translate(646.55 12.799999999999999)"/><use xlink:href="#h" transform="matrix(1,0,0,1,299.5,1090) translate(707.4499999999999 12.799999999999999)"/><path d="M979.5 303.65h120v29.6h-120v-29.6z" fill="#9d5025"/><path d="M979.5 300h120v28.8h-120V300z" fill="#f58536"/><path d="M979.5 342.07h120v30.9h-120v-30.9z" fill="#9d5025"/><path d="M979.5 339.72h120v28.8h-120v-28.8z" fill="#f58536"/><path d="M979.5 381.07h120V411h-120v-29.93z" fill="#9d5025"/><path d="M979.5 377.72h120v28.8h-120v-28.8z" fill="#f58536"/><path d="M994.24 323h-2.68v-12.74h-3.6v-1.8h.3c1.66 0 3.5-.4 4.03-2.63v-.35h1.94zM1009.7 308c-3.2 4.65-4.85 9.34-5.36 14.97h-2.9c.63-5.57 2.38-10.17 5.68-14.67h-7.52v-2.54h10.1zm12.25 14.97h-10c0-7.64 7.22-7.46 7.22-12.9 0-1.45-.62-2.65-2.17-2.65-2.06 0-2.36 1.8-2.36 3.6h-2.58c0-3.5 1.34-5.66 5.05-5.66 2.38-.3 4.54 1.38 4.85 3.76v.92c0 5.82-5.56 6.18-6.9 10.48h6.9zm5.87 0h-2.78v-3.27h2.78zm10 0h-2.8v-12.74h-3.6v-1.8h.3c1.66 0 3.62-.4 4.03-2.63v-.35h2.06zm10.3.34c-4.34 0-5.16-3.37-5.16-8.42 0-5.02.93-9.5 5.36-9.5 3.1 0 4.63 1.4 4.63 4.28h-2.68c0-1-.5-2.3-1.85-2.3-2.58 0-2.68 3.5-2.68 6.06.72-1.22 1.96-1.9 3.3-1.8 2.37 0 4.22 1.8 4.22 5.23.1 4.04-1.55 6.45-5.15 6.45zm10.9-.35h-2.77v-3.27h2.78zm8.04.34c-3.3 0-5.15-2.13-5.15-9 0-6.88 1.76-9 5.16-9 3.3 0 5.05 2.14 5.05 9 0 6.85-1.74 9-5.04 9zm10.7-.35h-2.67v-3.27h2.78zm8.05.34c-3.3 0-5.14-2.13-5.14-9 0-6.88 1.85-9 5.15-9 3.4 0 5.16 2.14 5.16 9 0 6.85-1.75 9-5.05 9zM1085.86 345.2c3.3 0 5.16 2.13 5.16 9 0 6.9-1.76 9-5.16 9-3.3 0-5.15-2.2-5.15-9.05 0-6.86 1.87-8.94 5.16-8.94zm-10.7 14.27h2.77v3.34h-2.9zm-12.38-11.3h.2c1.65 0 3.6-.4 4.02-2.62v-.34h2.07v17.6h-2.9V350h-3.5zm-6.5 11.3h2.8v3.34h-2.9zm-7.83-14.26c3 0 4.64 1.38 4.64 4.26h-2.9c0-1-.4-2.28-1.75-2.28-2.57 0-2.68 3.5-2.68 6.05.62-1.2 1.86-1.88 3.3-1.8 2.37 0 4.23 1.8 4.23 5.24 0 4.05-1.65 6.44-5.26 6.44-4.33 0-5.15-3.35-5.15-8.4 0-5.04 1.02-9.5 5.55-9.5zm-16.9 2.98h.2c1.66 0 3.62-.4 4.03-2.63v-.34h2.06v17.6h-2.78V350h-3.6zm-6.5 11.3h2.8v3.33h-2.8zm-8.03-12.3c-2.06 0-2.37 1.8-2.37 3.6h-2.57c0-3.5 1.33-5.64 5.04-5.64 2.38-.3 4.54 1.4 4.75 3.76.1.33.1.6.1.9 0 5.84-5.57 6.2-6.9 10.5h6.9v2.5h-10c0-7.62 7.22-7.44 7.22-12.92 0-1.47-.63-2.7-2.18-2.7zm-17.4-1.63h10.08v2.23c-3.2 4.65-4.84 9.34-5.35 14.97h-2.9c.63-5.56 2.38-10.16 5.68-14.66h-7.52zm-11.56 2.63h.2c1.66 0 3.62-.4 4.03-2.63v-.34h2.05v17.6h-2.78V350h-3.6zM1085.86 383.25c3.3 0 5.16 2.12 5.16 9 0 6.87-1.76 9-5.16 9-3.3 0-5.15-2.25-5.15-9.06 0-6.82 1.87-8.95 5.16-8.95zm-10.7 14.26h2.77v3.3h-2.9zm-8.05-12.28c-2.05 0-2.36 1.8-2.36 3.6h-2.68c0-3.5 1.44-5.64 5.05-5.64 2.38-.3 4.54 1.4 4.85 3.76v.9c0 5.82-5.56 6.2-6.9 10.5h7v2.45h-10c0-7.63 7.12-7.47 7.12-12.94 0-1.43-.52-2.64-2.06-2.64zm-10.8 12.3h2.77v3.27h-2.9zm-7.85-14.27c3 0 4.64 1.37 4.64 4.25h-2.9c0-1-.4-2.28-1.75-2.28-2.57 0-2.68 3.5-2.68 6.05.62-1.22 1.86-1.9 3.3-1.8 2.37 0 4.23 1.8 4.23 5.24 0 4.06-1.65 6.45-5.26 6.45-4.33 0-5.15-3.36-5.15-8.4 0-5.05 1.02-9.5 5.55-9.5zm-16.9 2.97h.2c1.66 0 3.62-.4 4.03-2.63v-.35h2.06v17.54h-2.78V388h-3.6zm-6.5 11.3h2.8v3.27h-2.8zm-8.03-12.3c-2.06 0-2.37 1.8-2.37 3.6h-2.57c0-3.5 1.33-5.64 5.04-5.64 2.38-.3 4.54 1.4 4.75 3.76.1.33.1.6.1.9 0 5.82-5.57 6.2-6.9 10.5h6.9v2.45h-10c0-7.63 7.22-7.47 7.22-12.94 0-1.43-.63-2.64-2.18-2.64zm-17.4-1.63h10.08v2.22c-3.2 4.65-4.84 9.34-5.35 14.97h-2.9c.63-5.57 2.38-10.17 5.68-14.67h-7.52zm-11.66 2.62h.3c1.66 0 3.62-.4 4.03-2.63v-.35h1.95v17.54h-2.68V388h-3.6z" fill="#fff"/><path d="M1067.03 307.7c-1.88 0-2.37 1.8-2.37 6.97s.5 6.96 2.37 6.96c1.88 0 2.36-1.8 2.36-6.96 0-5.17-.5-6.97-2.37-6.97zM1085.88 307.7c-1.88 0-2.36 1.8-2.36 6.97s.48 6.96 2.36 6.96 2.36-1.8 2.36-6.96c0-5.17-.48-6.97-2.36-6.97zM1085.88 361.37c1.88 0 2.36-1.8 2.36-6.96s-.48-6.96-2.36-6.96-2.36 1.8-2.36 6.97.46 6.97 2.36 6.97zM1048.34 361.37c1.68 0 2.27-1.8 2.27-3.76 0-2.42-.7-3.8-2.26-3.8-2 0-2.36 1.8-2.36 3.94 0 2.12.68 3.63 2.36 3.63zM1085.88 399.4c1.88 0 2.36-1.8 2.36-6.95 0-5.17-.48-6.97-2.36-6.97s-2.36 1.8-2.36 6.97c0 5.16.46 6.96 2.36 6.96zM1048.34 399.4c1.68 0 2.27-1.8 2.27-3.75 0-2.43-.7-3.8-2.26-3.8-2 0-2.36 1.8-2.36 3.93 0 2.12.68 3.63 2.36 3.63zM1048.34 321.63c1.68 0 2.27-1.8 2.27-3.76 0-2.43-.7-3.8-2.26-3.8-2 0-2.36 1.8-2.36 3.93 0 2.12.68 3.63 2.36 3.63z" fill="#f58536"/><use xlink:href="#i" transform="matrix(1,0,0,1,979.5,411) translate(21.27499999999999 14.4)"/><use xlink:href="#j" transform="matrix(1,0,0,1,979.5,411) translate(75.175 14.4)"/><path d="M979.5 732.65h120v29.6h-120v-29.6z" fill="#9d5025"/><path d="M979.5 729h120v28.8h-120V729z" fill="#f58536"/><path d="M979.5 771.07h120v30.9h-120v-30.9z" fill="#9d5025"/><path d="M979.5 768.72h120v28.8h-120v-28.8z" fill="#f58536"/><path d="M979.5 810.07h120V840h-120v-29.93z" fill="#9d5025"/><path d="M979.5 806.72h120v28.8h-120v-28.8z" fill="#f58536"/><path d="M994.24 752h-2.68v-12.74h-3.6v-1.8h.3c1.66 0 3.5-.4 4.03-2.63v-.35h1.94zM1009.7 737c-3.2 4.65-4.85 9.34-5.36 14.97h-2.9c.63-5.57 2.38-10.17 5.68-14.67h-7.52v-2.54h10.1zm12.25 14.97h-10c0-7.64 7.22-7.46 7.22-12.9 0-1.45-.62-2.65-2.17-2.65-2.06 0-2.36 1.8-2.36 3.6h-2.58c0-3.5 1.34-5.66 5.05-5.66 2.38-.3 4.54 1.38 4.85 3.76v.92c0 5.82-5.56 6.18-6.9 10.48h6.9zm5.87 0h-2.78v-3.27h2.78zm10 0h-2.8v-12.74h-3.6v-1.8h.3c1.66 0 3.62-.4 4.03-2.63v-.35h2.06zm10.3.34c-4.34 0-5.16-3.37-5.16-8.42 0-5.02.93-9.5 5.36-9.5 3.1 0 4.63 1.4 4.63 4.28h-2.68c0-1-.5-2.3-1.85-2.3-2.58 0-2.68 3.5-2.68 6.06.72-1.22 1.96-1.9 3.3-1.8 2.37 0 4.22 1.8 4.22 5.23.1 4.04-1.55 6.45-5.15 6.45zm10.9-.35h-2.77v-3.27h2.78zm8.04.34c-3.3 0-5.15-2.13-5.15-9 0-6.88 1.76-9 5.16-9 3.3 0 5.05 2.14 5.05 9 0 6.85-1.74 9-5.04 9zm10.7-.35h-2.67v-3.27h2.78zm8.05.34c-3.3 0-5.14-2.13-5.14-9 0-6.88 1.85-9 5.15-9 3.4 0 5.16 2.14 5.16 9 0 6.85-1.75 9-5.05 9zM1085.86 774.2c3.3 0 5.16 2.13 5.16 9 0 6.9-1.76 9-5.16 9-3.3 0-5.15-2.2-5.15-9.05 0-6.86 1.87-8.94 5.16-8.94zm-10.7 14.27h2.77v3.34h-2.9zm-12.38-11.3h.2c1.65 0 3.6-.4 4.02-2.62v-.34h2.07v17.6h-2.9V779h-3.5zm-6.5 11.3h2.8v3.34h-2.9zm-7.83-14.26c3 0 4.64 1.38 4.64 4.26h-2.9c0-1-.4-2.28-1.75-2.28-2.57 0-2.68 3.5-2.68 6.05.62-1.2 1.86-1.88 3.3-1.8 2.37 0 4.23 1.8 4.23 5.24 0 4.05-1.65 6.44-5.26 6.44-4.33 0-5.15-3.35-5.15-8.4 0-5.04 1.02-9.5 5.55-9.5zm-16.9 2.98h.2c1.66 0 3.62-.4 4.03-2.63v-.34h2.06v17.6h-2.78V779h-3.6zm-6.5 11.3h2.8v3.33h-2.8zm-8.03-12.3c-2.06 0-2.37 1.8-2.37 3.6h-2.57c0-3.5 1.33-5.64 5.04-5.64 2.38-.3 4.54 1.4 4.75 3.76.1.33.1.6.1.9 0 5.84-5.57 6.2-6.9 10.5h6.9v2.5h-10c0-7.62 7.22-7.44 7.22-12.92 0-1.47-.63-2.7-2.18-2.7zm-17.4-1.63h10.08v2.23c-3.2 4.65-4.84 9.34-5.35 14.97h-2.9c.63-5.56 2.38-10.16 5.68-14.66h-7.52zm-11.56 2.63h.2c1.66 0 3.62-.4 4.03-2.63v-.34h2.05v17.6h-2.78V779h-3.6zM1085.86 812.25c3.3 0 5.16 2.12 5.16 9 0 6.87-1.76 9-5.16 9-3.3 0-5.15-2.25-5.15-9.06 0-6.82 1.87-8.95 5.16-8.95zm-10.7 14.26h2.77v3.3h-2.9zm-8.05-12.28c-2.05 0-2.36 1.8-2.36 3.6h-2.68c0-3.5 1.44-5.64 5.05-5.64 2.38-.3 4.54 1.4 4.85 3.76v.9c0 5.82-5.56 6.2-6.9 10.5h7v2.45h-10c0-7.63 7.12-7.47 7.12-12.94 0-1.43-.52-2.64-2.06-2.64zm-10.8 12.3h2.77v3.27h-2.9zm-7.85-14.27c3 0 4.64 1.37 4.64 4.25h-2.9c0-1-.4-2.28-1.75-2.28-2.57 0-2.68 3.5-2.68 6.05.62-1.22 1.86-1.9 3.3-1.8 2.37 0 4.23 1.8 4.23 5.24 0 4.06-1.65 6.45-5.26 6.45-4.33 0-5.15-3.36-5.15-8.4 0-5.05 1.02-9.5 5.55-9.5zm-16.9 2.97h.2c1.66 0 3.62-.4 4.03-2.63v-.35h2.06v17.54h-2.78V817h-3.6zm-6.5 11.3h2.8v3.27h-2.8zm-8.03-12.3c-2.06 0-2.37 1.8-2.37 3.6h-2.57c0-3.5 1.33-5.64 5.04-5.64 2.38-.3 4.54 1.4 4.75 3.76.1.33.1.6.1.9 0 5.82-5.57 6.2-6.9 10.5h6.9v2.45h-10c0-7.63 7.22-7.47 7.22-12.94 0-1.43-.63-2.64-2.18-2.64zm-17.4-1.63h10.08v2.22c-3.2 4.65-4.84 9.34-5.35 14.97h-2.9c.63-5.57 2.38-10.17 5.68-14.67h-7.52zm-11.66 2.62h.3c1.66 0 3.62-.4 4.03-2.63v-.35h1.95v17.54h-2.68V817h-3.6z" fill="#fff"/><path d="M1067.03 736.7c-1.88 0-2.37 1.8-2.37 6.97s.5 6.96 2.37 6.96c1.88 0 2.36-1.8 2.36-6.96 0-5.17-.5-6.97-2.37-6.97zM1085.88 736.7c-1.88 0-2.36 1.8-2.36 6.97s.48 6.96 2.36 6.96 2.36-1.8 2.36-6.96c0-5.17-.48-6.97-2.36-6.97zM1085.88 790.37c1.88 0 2.36-1.8 2.36-6.96s-.48-6.96-2.36-6.96-2.36 1.8-2.36 6.97.46 6.97 2.36 6.97zM1048.34 790.37c1.68 0 2.27-1.8 2.27-3.76 0-2.42-.7-3.8-2.26-3.8-2 0-2.36 1.8-2.36 3.94 0 2.12.68 3.63 2.36 3.63zM1085.88 828.4c1.88 0 2.36-1.8 2.36-6.95 0-5.17-.48-6.97-2.36-6.97s-2.36 1.8-2.36 6.97c0 5.16.46 6.96 2.36 6.96zM1048.34 828.4c1.68 0 2.27-1.8 2.27-3.75 0-2.43-.7-3.8-2.26-3.8-2 0-2.36 1.8-2.36 3.93 0 2.12.68 3.63 2.36 3.63zM1048.34 750.63c1.68 0 2.27-1.8 2.27-3.76 0-2.43-.7-3.8-2.26-3.8-2 0-2.36 1.8-2.36 3.93 0 2.12.68 3.63 2.36 3.63z" fill="#f58536"/><use xlink:href="#g" transform="matrix(1,0,0,1,979.5,840) translate(17.775 14.4)"/><use xlink:href="#j" transform="matrix(1,0,0,1,979.5,840) translate(78.675 14.4)"/><path d="M279.5 462c0-16.57 13.43-30 30-30h520c16.57 0 30 13.43 30 30v228c0 16.57-13.43 30-30 30h-520c-16.57 0-30-13.43-30-30z" stroke="#474747" fill="none"/><path d="M341.47 420.24v-5.9c0-7.25-5.88-13.13-13.12-13.13-7.24 0-13.12 5.9-13.12 13.14v5.9h6.64v-5.9c0-3.58 2.9-6.5 6.48-6.5 3.57 0 6.48 2.92 6.48 6.5v5.9h6.64z" fill="#876a22"/><path d="M341.48 420.26h5.42v20.83h-37.4v-20.84h5.72v-7.1c0-7.28 5.87-13.16 13.13-13.16 7.26 0 13.13 5.88 13.13 13.15v7.1zm-6.66 0v-7.1c0-3.6-2.88-6.5-6.47-6.5-3.6 0-6.47 2.9-6.47 6.5v7.1h12.94z" fill="#daa835"/><path d="M309.5 441.1h37.4v.9h-37.4z" fill="#876a22"/><use xlink:href="#i" transform="matrix(1,0,0,1,279.5,690) translate(228.55 12.799999999999999)"/><use xlink:href="#k" transform="matrix(1,0,0,1,279.5,690) translate(282.45000000000005 12.799999999999999)"/><use xlink:href="#e" transform="matrix(1,0,0,1,279.5,690) translate(341.45000000000005 12.799999999999999)"/><path d="M1359.5 462c0-16.57 13.43-30 30-30h240c16.57 0 30 13.43 30 30v228c0 16.57-13.43 30-30 30h-240c-16.57 0-30-13.43-30-30z" stroke="#474747" fill="none"/><path d="M1421.47 420.24v-5.9c0-7.25-5.88-13.13-13.12-13.13-7.24 0-13.12 5.9-13.12 13.14v5.9h6.64v-5.9c0-3.58 2.9-6.5 6.48-6.5 3.57 0 6.48 2.92 6.48 6.5v5.9h6.64z" fill="#876a22"/><path d="M1421.48 420.26h5.42v20.83h-37.4v-20.84h5.72v-7.1c0-7.28 5.87-13.16 13.13-13.16 7.26 0 13.13 5.88 13.13 13.15v7.1zm-6.66 0v-7.1c0-3.6-2.88-6.5-6.47-6.5-3.6 0-6.47 2.9-6.47 6.5v7.1h12.94z" fill="#daa835"/><path d="M1389.5 441.1h37.4v.9h-37.4z" fill="#876a22"/><use xlink:href="#i" transform="matrix(1,0,0,1,1359.5,690) translate(88.55 12.799999999999999)"/><use xlink:href="#k" transform="matrix(1,0,0,1,1359.5,690) translate(142.45 12.799999999999999)"/><use xlink:href="#f" transform="matrix(1,0,0,1,1359.5,690) translate(201.45 12.799999999999999)"/><path d="M279.5 802c0-16.57 13.43-30 30-30h520c16.57 0 30 13.43 30 30v388c0 16.57-13.43 30-30 30h-520c-16.57 0-30-13.43-30-30z" stroke="#474747" fill="none"/><path d="M341.47 760.24v-5.9c0-7.25-5.88-13.13-13.12-13.13-7.24 0-13.12 5.9-13.12 13.14v5.9h6.64v-5.9c0-3.58 2.9-6.5 6.48-6.5 3.57 0 6.48 2.92 6.48 6.5v5.9h6.64z" fill="#876a22"/><path d="M341.48 760.26h5.42v20.83h-37.4v-20.84h5.72v-7.1c0-7.28 5.87-13.16 13.13-13.16 7.26 0 13.13 5.88 13.13 13.15v7.1zm-6.66 0v-7.1c0-3.6-2.88-6.5-6.47-6.5-3.6 0-6.47 2.9-6.47 6.5v7.1h12.94z" fill="#daa835"/><path d="M309.5 781.1h37.4v.9h-37.4z" fill="#876a22"/><use xlink:href="#g" transform="matrix(1,0,0,1,279.5,1190) translate(225.05 12.799999999999999)"/><use xlink:href="#k" transform="matrix(1,0,0,1,279.5,1190) translate(285.95 12.799999999999999)"/><use xlink:href="#e" transform="matrix(1,0,0,1,279.5,1190) translate(344.95000000000005 12.799999999999999)"/><path d="M1219.5 802c0-16.57 13.43-30 30-30h380c16.57 0 30 13.43 30 30v388c0 16.57-13.43 30-30 30h-380c-16.57 0-30-13.43-30-30z" stroke="#474747" fill="none"/><path d="M1281.47 760.24v-5.9c0-7.25-5.88-13.13-13.12-13.13-7.24 0-13.12 5.9-13.12 13.14v5.9h6.64v-5.9c0-3.58 2.9-6.5 6.48-6.5 3.57 0 6.48 2.92 6.48 6.5v5.9h6.64z" fill="#876a22"/><path d="M1281.48 760.26h5.42v20.83h-37.4v-20.84h5.72v-7.1c0-7.28 5.87-13.16 13.13-13.16 7.26 0 13.13 5.88 13.13 13.15v7.1zm-6.66 0v-7.1c0-3.6-2.88-6.5-6.47-6.5-3.6 0-6.47 2.9-6.47 6.5v7.1h12.94z" fill="#daa835"/><path d="M1249.5 781.1h37.4v.9h-37.4z" fill="#876a22"/><use xlink:href="#g" transform="matrix(1,0,0,1,1219.5,1190) translate(155.05 12.799999999999999)"/><use xlink:href="#k" transform="matrix(1,0,0,1,1219.5,1190) translate(215.95000000000002 12.799999999999999)"/><use xlink:href="#f" transform="matrix(1,0,0,1,1219.5,1190) translate(274.95000000000005 12.799999999999999)"/><path d="M429.5 490c0-16.57 13.43-30 30-30h220c16.57 0 30 13.43 30 30v140c0 16.57-13.43 30-30 30h-220c-16.57 0-30-13.43-30-30z" stroke="#474747" stroke-width="3" fill="none"/><path d="M429.5 490c0-16.57 13.43-30 30-30h220c16.57 0 30 13.43 30 30v140c0 16.57-13.43 30-30 30h-220c-16.57 0-30-13.43-30-30z" fill="none"/><path d="M444.54 464.1l3.17-1.7 4.72-1.56 4.93-.76 2.15-.08h14.67m14.66 0h29.34m14.66 0h29.34m14.66 0h29.34m14.66 0h29.34m14.66 0h14.67l5 .42 4.82 1.22 4.54 2 .6.42m10.95 10.98l1.7 3.17 1.56 4.72.76 4.93.08 2.15v15.56m0 15.55v31.12m0 15.56v31.1m0 15.56V630l-.42 5-1.22 4.82-2 4.54-.42.6m-10.98 10.95l-3.17 1.7-4.72 1.56-4.93.76-2.15.08h-14.67m-14.66 0h-29.34m-14.66 0h-29.34m-14.66 0h-29.34m-14.66 0h-29.34m-14.66 0H459.5l-5-.42-4.82-1.22-4.54-2-.6-.42m-10.95-10.98l-1.7-3.17-1.56-4.72-.76-4.93-.08-2.15v-15.56m0-15.55v-31.12m0-15.56v-31.1m0-15.56V490l.42-5 1.22-4.82 2-4.54.42-.6" stroke="red" stroke-width="3" fill="none"/><use xlink:href="#l" transform="matrix(1,0,0,1,429.5,630.0000000000001) translate(94.525 12.799999999999999)"/><use xlink:href="#h" transform="matrix(1,0,0,1,429.5,630.0000000000001) translate(159.47500000000002 12.799999999999999)"/><path d="M531.78 485.36h75.44c19.78 0 19.78 0 19.78 19.72v75.2c0 19.7 0 19.7-19.78 19.7h-75.44C512 600 512 600 512 580.3v-75.2c0-19.72 0-19.72 19.78-19.72z" fill="#9d5025"/><path d="M531.78 480h75.44C627 480 627 480 627 499.72v75.2c0 19.7 0 19.7-19.78 19.7h-75.44c-19.78 0-19.78 0-19.78-19.7v-75.2C512 480 512 480 531.78 480z" fill="#f58536"/><use xlink:href="#l" transform="matrix(1,0,0,1,512,600) translate(8.024999999999999 14.4)"/><use xlink:href="#m" transform="matrix(1,0,0,1,512,600) translate(72.975 14.4)"/><path d="M1094.5 182.36c0 31.8-25.76 57.63-57.5 57.63s-57.5-25.83-57.5-57.64c0-31.8 25.76-57.63 57.5-57.63s57.5 25.82 57.5 57.63z" fill="#9d5025"/><path d="M979.5 177.62h115v4.73h-115v-4.73z" fill="#9d5025"/><path d="M1094.5 177.63c0 31.8-25.76 57.63-57.5 57.63s-57.5-25.82-57.5-57.63c0-31.8 25.76-57.63 57.5-57.63s57.5 25.82 57.5 57.63z" fill="#f58536"/><path d="M993.64 183.36v-1.5c.44-7 4.34-12.8 10.66-15.86.6-12.86 11.52-22.8 24.43-22.12 8.05.38 14.8 4.5 18.88 11.47 6.6-2.77 14.13.28 16.9 6.82.43.95.7 1.72.86 2.67 8.67 1.72 14.9 10.03 14.9 17.02v1.4c0 8.53-8.83 16-18.88 16h-48.94c-9.96.07-18.8-7.42-18.8-15.9z" fill="#fff"/><path d="M1048.77 161.48l-3.67 2.54-1.87-4.06c-2.85-6.34-8.7-10.23-15.66-10.27h-.07c-9.52 0-17.3 7.77-17.3 17.38v3.23l-2.7.8c-4.57 1.83-7.57 5.85-7.94 10.8v1.4c0 4.66 5.7 10.08 12.96 10.08h49c7.33 0 12.95-5.42 12.95-10.1v-1.4c0-4.7-5.25-10.87-11.3-11.35l-3.3-.26-.24-3.28c0-1.4-.44-2.54-1.2-3.68-2.17-3.2-6.5-3.98-9.66-1.8z" fill="#f58536"/><use xlink:href="#n" transform="matrix(1,0,0,1,979.5,240) translate(27.025 14.4)"/><use xlink:href="#o" transform="matrix(1,0,0,1,979.5,240) translate(24.025 36)"/><path d="M1079.68 220.9h2.5V300" stroke="#3aa6dd" stroke-width="5" fill="none"/><path d="M1082.13 220.4l-2.45.5 1.5-1.66.57-.75z" fill="#3aa6dd"/><path fill="#3aa6dd"/><path d="M961.26 365.5H569.5v96.26" stroke="#834187" stroke-width="2" fill="none"/><path d="M976.26 365.5L962 370.14v-9.28z" fill="#834187"/><path d="M979.5 365.5l-18.5 6v-12zm-16.5 3.26l10.03-3.26-10.03-3.26zM569.5 476.76l-4.64-14.26h9.28z" fill="#834187"/><path d="M569.5 480l-6-18.5h12zm-3.26-16.5l3.26 10.03 3.26-10.03z" fill="#834187"/><path d="M645.24 550h158v194h158.02" stroke="#834187" stroke-width="2" fill="none"/><path d="M644.5 554.64L630.24 550l14.26-4.64z" fill="#834187"/><path d="M645.5 556l-18.5-6 18.5-6zm-12.03-6l10.03 3.26v-6.52zM976.26 744L962 748.64v-9.28z" fill="#834187"/><path d="M979.5 744l-18.5 6v-12zm-16.5 3.26l10.03-3.26-10.03-3.26z" fill="#834187"/><path d="M568.48 1015.07h52c6.5 0 6.5 0 6.5 6.5v51.93c0 6.5 0 6.5-6.5 6.5h-52c-6.5 0-6.5 0-6.5-6.5v-51.94c0-6.5 0-6.5 6.5-6.5zM570.47 965.36H518.5c-3.58 0-6.5 2.92-6.5 6.5v51.9c0 3.57 2.92 6.5 6.5 6.5h12V996.7c0-7.13 5.8-12.97 13-12.97h33.46v-11.88c0-3.57-2.92-6.5-6.5-6.5z" fill="#9d5025"/><path d="M595.46 990.22H543.5c-3.6 0-6.5 2.92-6.5 6.48v51.9c0 3.58 2.9 6.5 6.5 6.5h12v-33.55c0-7.13 5.85-12.97 13-12.97h33.45V996.7c0-3.56-2.92-6.48-6.5-6.48z" fill="#9d5025"/><path d="M568.48 1009.7h52c6.5 0 6.5 0 6.5 6.5v51.93c0 6.5 0 6.5-6.5 6.5h-52c-6.5 0-6.5 0-6.5-6.5v-51.93c0-6.5 0-6.5 6.5-6.5zM570.47 960H518.5c-3.58 0-6.5 2.92-6.5 6.5v51.9c0 3.56 2.92 6.48 6.5 6.48h12v-33.54c0-7.14 5.8-12.98 13-12.98h33.46V966.5c0-3.58-2.92-6.5-6.5-6.5z" fill="#f58536"/><path d="M595.46 984.85H543.5c-3.6 0-6.5 2.92-6.5 6.5v51.9c0 3.57 2.9 6.5 6.5 6.5h12v-33.56c0-7.15 5.85-13 13-13h33.45v-11.86c0-3.57-2.92-6.5-6.5-6.5z" fill="#f58536"/><use xlink:href="#a" transform="matrix(1,0,0,1,512,1080) translate(4.25 14.4)"/><use xlink:href="#p" transform="matrix(1,0,0,1,512,1080) translate(45.849999999999994 14.4)"/><use xlink:href="#e" transform="matrix(1,0,0,1,512,1080) translate(100.75 14.4)"/><path d="M1395.98 1015.07h52c6.5 0 6.5 0 6.5 6.5v51.93c0 6.5 0 6.5-6.5 6.5h-52c-6.5 0-6.5 0-6.5-6.5v-51.94c0-6.5 0-6.5 6.5-6.5zM1397.97 965.36H1346c-3.58 0-6.5 2.92-6.5 6.5v51.9c0 3.57 2.92 6.5 6.5 6.5h12V996.7c0-7.13 5.8-12.97 13-12.97h33.46v-11.88c0-3.57-2.92-6.5-6.5-6.5z" fill="#9d5025"/><path d="M1422.96 990.22H1371c-3.6 0-6.5 2.92-6.5 6.48v51.9c0 3.58 2.9 6.5 6.5 6.5h12v-33.55c0-7.13 5.85-12.97 13-12.97h33.45V996.7c0-3.56-2.92-6.48-6.5-6.48z" fill="#9d5025"/><path d="M1395.98 1009.7h52c6.5 0 6.5 0 6.5 6.5v51.93c0 6.5 0 6.5-6.5 6.5h-52c-6.5 0-6.5 0-6.5-6.5v-51.93c0-6.5 0-6.5 6.5-6.5zM1397.97 960H1346c-3.58 0-6.5 2.92-6.5 6.5v51.9c0 3.56 2.92 6.48 6.5 6.48h12v-33.54c0-7.14 5.8-12.98 13-12.98h33.46V966.5c0-3.58-2.92-6.5-6.5-6.5z" fill="#f58536"/><path d="M1422.96 984.85H1371c-3.6 0-6.5 2.92-6.5 6.5v51.9c0 3.57 2.9 6.5 6.5 6.5h12v-33.56c0-7.15 5.85-13 13-13h33.45v-11.86c0-3.57-2.92-6.5-6.5-6.5z" fill="#f58536"/><use xlink:href="#a" transform="matrix(1,0,0,1,1339.5,1080) translate(4.25 14.4)"/><use xlink:href="#p" transform="matrix(1,0,0,1,1339.5,1080) translate(45.849999999999994 14.4)"/><use xlink:href="#f" transform="matrix(1,0,0,1,1339.5,1080) translate(100.75 14.4)"/><path d="M1039.5 840v190H645.22" stroke="#834187" stroke-width="2" fill="none"/><path fill="#834187"/><path d="M644.5 1034.64L630.2 1030l14.27-4.64z" fill="#834187"/><path d="M645.5 1036l-18.5-6 18.5-6zm-12.04-6l10.03 3.26v-6.52z" fill="#834187"/><path d="M1323.57 1028.53H1039.5v-170.3" stroke="#834187" stroke-width="2" fill="none"/><path d="M1338.57 1028.53l-14.27 4.64v-9.27z" fill="#834187"/><path d="M1341.8 1028.53l-18.5 6v-12zm-16.5 3.26l10.03-3.27-10.03-3.26zM1044.14 857.5h-9.28l4.64-14.28z" fill="#834187"/><path d="M1045.5 858.5h-12l6-18.5zm-9.26-2h6.52l-3.26-10.04z" fill="#834187"/><path d="M379.5 930c0-16.57 13.43-30 30-30h1160c16.57 0 30 13.43 30 30v220c0 16.57-13.43 30-30 30h-1160c-16.57 0-30-13.43-30-30z" fill="none"/><path d="M387.6 909.67l1.5-1.64m9.46-5.9l3.86-1.3 4.93-.75 2.15-.08h15.34m15.35 0h3.06m15.34 0h30.7m15.33 0h3.07m15.34 0h30.7m15.34 0h3.07m15.34 0h30.68m15.34 0h3.07m15.33 0h30.7m15.34 0h3.06m15.35 0h30.7m15.33 0h3.08m15.34 0h30.7m15.33 0h3.07m15.35 0h30.7m15.33 0h3.07m15.34 0h30.7m15.34 0h3.07m15.36 0h30.68m15.35 0h3.06m15.34 0h30.7m15.33 0h3.07m15.34 0h30.7m15.34 0h3.07m15.34 0h30.68m15.34 0h3.07m15.33 0h30.7m15.34 0h3.06m15.35 0h30.7m15.33 0h3.08m15.34 0h30.7m15.33 0h3.07m15.35 0h30.7m15.33 0h3.07m15.34 0h30.7m15.34 0h3.07m15.36 0h15.34l5 .42 4.82 1.22 1.1.5m9.4 5.95l1.65 1.5m5.9 9.46l1.3 3.86.75 4.93.08 2.15v17.46m0 17.46v3.5m0 17.45v34.92m0 17.45v3.5m0 17.46v34.93m0 17.46v3.48m0 17.46V1150l-.42 5-1.22 4.82-.5 1.1m-5.95 9.4l-1.5 1.65m-9.46 5.9l-3.86 1.3-4.93.75-2.15.08h-15.34m-15.35 0h-3.06m-15.34 0h-30.7m-15.33 0h-3.07m-15.34 0h-30.7m-15.34 0h-3.07m-15.34 0h-30.68m-15.34 0h-3.07m-15.33 0h-30.7m-15.34 0h-3.06m-15.35 0h-30.7m-15.33 0h-3.08m-15.34 0h-30.7m-15.33 0h-3.07m-15.35 0h-30.7m-15.33 0h-3.07m-15.34 0h-30.7m-15.34 0h-3.07m-15.36 0h-30.68m-15.35 0h-3.06m-15.34 0h-30.7m-15.33 0h-3.07m-15.34 0h-30.7m-15.34 0h-3.07m-15.34 0h-30.68m-15.34 0h-3.07m-15.33 0h-30.7m-15.34 0h-3.06m-15.35 0h-30.7m-15.33 0h-3.08m-15.34 0h-30.7m-15.33 0h-3.07m-15.35 0h-30.7m-15.33 0h-3.07m-15.34 0h-30.7m-15.34 0h-3.07m-15.36 0H409.5l-5-.42-4.82-1.22-1.1-.5m-9.4-5.95l-1.65-1.5m-5.9-9.46l-1.3-3.86-.75-4.93-.08-2.15v-17.46m0-17.46v-3.5m0-17.45v-34.92m0-17.45v-3.5m0-17.46v-34.93m0-17.46v-3.48m0-17.46V930l.42-5 1.22-4.82.5-1.1" stroke="#474747" stroke-width="3" fill="none"/><use xlink:href="#a" transform="matrix(1,0,0,1,379.5,1150) translate(513.275 12.799999999999999)"/><use xlink:href="#q" transform="matrix(1,0,0,1,379.5,1150) translate(554.875 12.799999999999999)"/><use xlink:href="#r" transform="matrix(1,0,0,1,379.5,1150) translate(596.875 12.799999999999999)"/><use xlink:href="#s" transform="matrix(1,0,0,1,379.5,1150) translate(660.775 12.799999999999999)"/><path d="M1097 533.36c0 31.8-25.76 57.63-57.5 57.63S982 565.16 982 533.35c0-31.8 25.76-57.63 57.5-57.63s57.5 25.82 57.5 57.63z" fill="#9d5025"/><path d="M1097 528.63c0 31.8-25.76 57.63-57.5 57.63S982 560.44 982 528.63c0-31.8 25.76-57.63 57.5-57.63s57.5 25.82 57.5 57.63z" fill="#f58536"/><path d="M1056.27 482.08V503h-33.56v-20.92h33.57zM1082.22 542.64v17.04h-17v-17.04h17zM1060.73 542.64v17.04h-17v-17.04h17zM1034.56 542.64v17.04h-17v-17.04h17zM1013.05 542.64v17.04h-17v-17.04h17z" fill="#fff"/><path d="M1003.02 527.9h3.06v16.7h-3.06v-16.7z" fill="#fff"/><path d="M1003.02 527.9h24.57v3.05H1003v-3.06z" fill="#fff"/><path d="M1024.53 527.9h3.06v16.7h-3.07v-16.7zM1050.7 527.9h3.06v16.7h-3.06v-16.7z" fill="#fff"/><path d="M1050.7 527.9h24.57v3.05h-24.57v-3.06z" fill="#fff"/><path d="M1072.2 527.9h3.07v16.7h-3.06v-16.7zM1013.8 515.95h3.06v13.47h-3.06v-13.47zM1037.96 499.92h3.06v16.28h-3.06v-16.28z" fill="#fff"/><path d="M1013.8 514.67h50.77v3.06h-50.77v-3.06z" fill="#fff"/><path d="M1061.5 515.95h3.07v13.47h-3.06v-13.47z" fill="#fff"/><use xlink:href="#t" transform="matrix(1,0,0,1,982,591) translate(13.574999999999996 14.4)"/><use xlink:href="#u" transform="matrix(1,0,0,1,982,591) translate(37.5 36)"/><use xlink:href="#v" transform="matrix(1,0,0,1,982,591) translate(22.049999999999997 57.6)"/><path d="M939.5 490c0-16.57 13.43-30 30-30h160c16.57 0 30 13.43 30 30v160c0 16.57-13.43 30-30 30h-160c-16.57 0-30-13.43-30-30z" stroke="#474747" stroke-width="3" fill="none"/><path d="M939.5 490c0-16.57 13.43-30 30-30h160c16.57 0 30 13.43 30 30v160c0 16.57-13.43 30-30 30h-160c-16.57 0-30-13.43-30-30z" fill="none"/><path d="M954.54 464.1l3.17-1.7 4.72-1.56 4.93-.76 2.15-.08h13.33m13.34 0h26.66m13.34 0h26.66m13.34 0h26.66m13.34 0h13.33l5 .42 4.82 1.22 4.54 2 .6.42m10.95 10.98l1.7 3.17 1.56 4.72.76 4.93.08 2.15v13.33m0 13.34v26.66m0 13.34v26.66m0 13.34v26.66m0 13.34V650l-.42 5-1.22 4.82-2 4.54-.42.6m-10.98 10.95l-3.17 1.7-4.72 1.56-4.93.76-2.15.08h-13.33m-13.34 0h-26.66m-13.34 0h-26.66m-13.34 0h-26.66m-13.34 0H969.5l-5-.42-4.82-1.22-4.54-2-.6-.42m-10.95-10.98l-1.7-3.17-1.56-4.72-.76-4.93-.08-2.15v-13.33m0-13.34v-26.66m0-13.34v-26.66m0-13.34v-26.66m0-13.34V490l.42-5 1.22-4.82 2-4.54.42-.6" stroke="red" stroke-width="3" fill="none"/><use xlink:href="#w" transform="matrix(1,0,0,1,939.5,650) translate(58.525 12.799999999999999)"/><use xlink:href="#x" transform="matrix(1,0,0,1,939.5,650) translate(97.525 12.799999999999999)"/><use xlink:href="#h" transform="matrix(1,0,0,1,939.5,650) translate(135.475 12.799999999999999)"/><path d="M1554.5 542.36c0 31.8-25.76 57.63-57.5 57.63s-57.5-25.83-57.5-57.64c0-31.8 25.76-57.63 57.5-57.63s57.5 25.82 57.5 57.63z" fill="#9d5025"/><path d="M1554.5 537.63c0 31.8-25.76 57.63-57.5 57.63s-57.5-25.82-57.5-57.63c0-31.8 25.76-57.63 57.5-57.63s57.5 25.82 57.5 57.63z" fill="#f58536"/><path d="M1512.56 510.86h6.06v53.5h-6.06v-53.5zM1529.6 524.4l15.88 12.97-15.87 13.48V524.4z" fill="#fff"/><path d="M1473.48 534.6l3.5 2.8-3.85 3.26h59.15v-6.06h-58.8zM1473.13 513.9h45.5v-6.06h-45.14l3.45 2.82-3.82 3.25zM1476.95 564.15l-3.82 3.26h45.5v-6.06h-45.14l3.45 2.8zM1460.5 527.04l12.68 10.35-12.7 10.8v-21.16zM1460.5 500.3l12.68 10.35-12.7 10.8v-21.16zM1460.5 553.8l12.68 10.36-12.7 10.78V553.8z" fill="#fff"/><use xlink:href="#y" transform="matrix(1,0,0,1,1439.5,600) translate(19.424999999999997 14.4)"/><use xlink:href="#z" transform="matrix(1,0,0,1,1439.5,600) translate(61.375 14.4)"/><use xlink:href="#o" transform="matrix(1,0,0,1,1439.5,600) translate(24.025 36)"/><path d="M1497 480V365.5h-397.5" stroke="#a3d977" stroke-width="4" fill="none"/><path d="M1499 480.1l-2-.1h-.53l-1.47.08V480h4z" fill="#a3d977"/><path fill="#a3d977"/><path d="M1440.05 550H1240v196.67h-140.5" stroke="#a3d977" stroke-width="3" fill="none"/><path d="M1440.27 551.5h-.22V550z" fill="#a3d977"/><path fill="#a3d977"/><path d="M1397 960V825.33h-297.5" stroke="#a3d977" stroke-width="3" fill="none"/><path d="M1398.5 960.03l-.53-.03h.53z" fill="#a3d977"/><path fill="#a3d977"/><path d="M569.5 960V828h410" stroke="#a3d977" stroke-width="3" fill="none"/><path d="M571 960.03l-.53-.03h.53z" fill="#a3d977"/><path fill="#a3d977"/><path d="M1466.28 123.6h-38.02c-2.04 0-3.67 1.63-3.67 3.64h45.3c0-2-1.63-3.63-3.62-3.64zM1428.28 130.87h38.02c2 0 3.62-1.62 3.62-3.6h-45.3c.04 2 1.67 3.6 3.66 3.6z" fill-opacity="0"/><path d="M1469.9 127.26c0 2-1.57 3.62-3.6 3.62h-38.05c-2.04.02-3.6-1.6-3.72-3.62h-65.03v3.62c0 5.03 4.08 9.1 9.12 9.1h101.75c5.04.02 9.12-4.05 9.12-9.1v-3.62zM1475.47 83.96l-5.87 6.44c0 2.3-1.92 4.14-4.2 4.14h-91.93c-2.27-.02-4.2-1.86-4.2-4.14l-4.9-6.44h-4.8v6.44c0 7.62 6.24 13.78 13.9 13.76h91.94c7.67.02 13.9-6.14 13.9-13.76v-6.44z" fill="#7d7c7c"/><path d="M1470.38 109.16c4.92-.03 9.12 4 9.12 9.02v7.35c0 5.06-4.08 9.1-9.12 9.1h-101.76c-5.04 0-9.12-4.04-9.12-9.06v-7.33c0-5 4.08-9.08 9.12-9.05zm-4.08 16.38c2.04 0 3.6-1.63 3.6-3.64 0-2-1.56-3.65-3.6-3.65h-38.04c-2.04 0-3.6 1.64-3.6 3.65 0 2 1.56 3.64 3.6 3.64h38.04M1465.4 20c7.67 0 13.9 6.15 13.9 13.7v51.4c0 7.57-6.23 13.72-13.9 13.72h-91.93c-7.66 0-13.9-6.15-13.9-13.72V33.7c0-7.55 6.24-13.7 13.9-13.7zm4.2 65.1V33.7c0-2.27-1.92-4.08-4.2-4.08h-91.93c-2.27 0-4.2 1.8-4.2 4.1V85.1c0 2.2 1.93 4.1 4.2 4.1h91.94c2.28 0 4.2-1.8 4.2-4.1" fill="#d2d3d3"/><use xlink:href="#A" transform="matrix(1,0,0,1,1359.5,140) translate(34.55 14.4)"/><path d="M1359.58 90H1037v30" stroke="#3aa6dd" stroke-width="5" fill="none"/><path d="M1359.58 92.5v-2.1l.28 2.1zm3 0h-.7l-.48-.62-1.36-3.27-.14-1.1h2.68zM1039.5 120.1l-2.5-.1h-.53l-1.97.1v-.1h5z" fill="#3aa6dd"/><path d="M1039.5 471v-60" stroke="#3aa6dd" stroke-width="5" fill="none"/><path d="M1042 471.1l-2.5-.1h-.53l-1.97.1v-.1h5z" fill="#3aa6dd"/><path fill="#3aa6dd"/><path d="M1037.1 590.88v69.06h2.4V729" stroke="#3aa6dd" stroke-width="5" fill="none"/><path d="M1037.1 590.88h-2.5v-.1z" fill="#3aa6dd"/><path fill="#3aa6dd"/><path d="M984 840v151.2H625" stroke="#3aa6dd" stroke-width="5" fill="none"/><path fill="#3aa6dd"/><path d="M624.27 995.84L610 991.2l14.27-4.63z" fill="#3aa6dd"/><path d="M626.77 999.28l-24.85-8.08 24.85-8.07zm-8.67-8.08l3.67 1.2V990z" fill="#3aa6dd"/><path d="M1088 840v137.33h228.4" stroke="#3aa6dd" stroke-width="5" fill="none"/><path fill="#3aa6dd"/><path d="M1331.4 977.33l-14.26 4.64v-9.27z" fill="#3aa6dd"/><path d="M1339.5 977.33l-24.86 8.08v-16.14zm-19.86 1.2l3.68-1.2-3.68-1.2z" fill="#3aa6dd"/><path d="M666.78 123.6h-38.02c-2.04 0-3.67 1.63-3.67 3.64h45.3c0-2-1.63-3.63-3.62-3.64zM628.78 130.87h38.02c2 0 3.62-1.62 3.62-3.6h-45.3c.04 2 1.67 3.6 3.66 3.6z" fill-opacity="0"/><path d="M670.4 127.26c0 2-1.57 3.62-3.6 3.62h-38.05c-2.04.02-3.6-1.6-3.72-3.62H560v3.62c0 5.03 4.08 9.1 9.12 9.1h101.75c5.04.02 9.12-4.05 9.12-9.1v-3.62zM675.97 83.96l-5.87 6.44c0 2.3-1.92 4.14-4.2 4.14h-91.93c-2.27-.02-4.2-1.86-4.2-4.14l-4.9-6.44h-4.8v6.44c0 7.62 6.24 13.78 13.9 13.76h91.94c7.67.02 13.9-6.14 13.9-13.76v-6.44z" fill="#7d7c7c"/><path d="M670.88 109.16c4.92-.03 9.12 4 9.12 9.02v7.35c0 5.06-4.08 9.1-9.12 9.1H569.12c-5.04 0-9.12-4.04-9.12-9.06v-7.33c0-5 4.08-9.08 9.12-9.05zm-4.08 16.38c2.04 0 3.6-1.63 3.6-3.64 0-2-1.56-3.65-3.6-3.65h-38.04c-2.04 0-3.6 1.64-3.6 3.65 0 2 1.56 3.64 3.6 3.64h38.04M665.9 20c7.67 0 13.9 6.15 13.9 13.7v51.4c0 7.57-6.23 13.72-13.9 13.72h-91.93c-7.66 0-13.9-6.15-13.9-13.72V33.7c0-7.55 6.24-13.7 13.9-13.7zm4.2 65.1V33.7c0-2.27-1.92-4.08-4.2-4.08h-91.93c-2.27 0-4.2 1.8-4.2 4.1V85.1c0 2.2 1.93 4.1 4.2 4.1h91.94c2.28 0 4.2-1.8 4.2-4.1" fill="#d2d3d3"/><g><use xlink:href="#B" transform="matrix(1,0,0,1,560,140) translate(41.525 14.4)"/></g><path d="M1007.72 109.8V90h-309.7" stroke="#834187" stroke-width="2" fill="none"/><path d="M1007.72 124.8l-4.63-14.26h9.26z" fill="#834187"/><path d="M1007.72 128.05l-6-18.5h12zm-3.26-16.5l3.26 10.02 3.26-10.03zM697.3 94.64L683.03 90l14.27-4.64z" fill="#834187"/><path d="M698.3 96l-18.5-6 18.5-6zm-12.03-6l10.03 3.26v-6.52z" fill="#834187"/><path d="M1004.3 248v33.76" stroke="#834187" stroke-width="2" fill="none"/><path d="M1008.92 247.25h-9.27l4.64-14.26z" fill="#834187"/><path d="M1010.3 248.25h-12.02l6-18.5zm-9.27-2h6.52l-3.26-10.03zM1004.3 296.76l-4.65-14.26h9.27z" fill="#834187"/><path d="M1004.3 300l-6.02-18.5h12.02zm-3.27-16.5l3.26 10.03 3.25-10.03z" fill="#834187"/><defs><path d="M266 0h-40l-56-210L115 0H75L2-248h35L96-30l15-64 43-154h32l59 218 59-218h35" id="C"/><path d="M100-194c63 0 86 42 84 106H49c0 40 14 67 53 68 26 1 43-12 49-29l28 8c-11 28-37 45-77 45C44 4 14-33 15-96c1-61 26-98 85-98zm52 81c6-60-76-77-97-28-3 7-6 17-6 28h103" id="D"/><path d="M115-194c53 0 69 39 70 98 0 66-23 100-70 100C84 3 66-7 56-30L54 0H23l1-261h32v101c10-23 28-34 59-34zm-8 174c40 0 45-34 45-75 0-40-5-75-45-74-42 0-51 32-51 76 0 43 10 73 51 73" id="E"/><g id="a"><use transform="matrix(0.05,0,0,0.05,0,0)" xlink:href="#C"/><use transform="matrix(0.05,0,0,0.05,16.599999999999998,0)" xlink:href="#D"/><use transform="matrix(0.05,0,0,0.05,26.599999999999994,0)" xlink:href="#E"/></g><path d="M137 0h-34L2-248h35l83 218 83-218h36" id="F"/><path d="M30-248c87 1 191-15 191 75 0 78-77 80-158 76V0H30v-248zm33 125c57 0 124 11 124-50 0-59-68-47-124-48v98" id="G"/><path d="M212-179c-10-28-35-45-73-45-59 0-87 40-87 99 0 60 29 101 89 101 43 0 62-24 78-52l27 14C228-24 195 4 139 4 59 4 22-46 18-125c-6-104 99-153 187-111 19 9 31 26 39 46" id="H"/><g id="b"><use transform="matrix(0.05,0,0,0.05,0,0)" xlink:href="#F"/><use transform="matrix(0.05,0,0,0.05,12,0)" xlink:href="#G"/><use transform="matrix(0.05,0,0,0.05,24,0)" xlink:href="#H"/></g><path d="M205 0l-28-72H64L36 0H1l101-248h38L239 0h-34zm-38-99l-47-123c-12 45-31 82-46 123h93" id="I"/><path d="M108 0H70L1-190h34L89-25l56-165h34" id="J"/><path d="M141-36C126-15 110 5 73 4 37 3 15-17 15-53c-1-64 63-63 125-63 3-35-9-54-41-54-24 1-41 7-42 31l-33-3c5-37 33-52 76-52 45 0 72 20 72 64v82c-1 20 7 32 28 27v20c-31 9-61-2-59-35zM48-53c0 20 12 33 32 33 41-3 63-29 60-74-43 2-92-5-92 41" id="K"/><path d="M24-231v-30h32v30H24zM24 0v-190h32V0H24" id="L"/><path d="M24 0v-261h32V0H24" id="M"/><path d="M59-47c-2 24 18 29 38 22v24C64 9 27 4 27-40v-127H5v-23h24l9-43h21v43h35v23H59v120" id="N"/><path d="M179-190L93 31C79 59 56 82 12 73V49c39 6 53-20 64-50L1-190h34L92-34l54-156h33" id="O"/><g id="c"><use transform="matrix(0.05,0,0,0.05,0,0)" xlink:href="#I"/><use transform="matrix(0.05,0,0,0.05,11.65,0)" xlink:href="#J"/><use transform="matrix(0.05,0,0,0.05,20.65,0)" xlink:href="#K"/><use transform="matrix(0.05,0,0,0.05,30.649999999999995,0)" xlink:href="#L"/><use transform="matrix(0.05,0,0,0.05,34.6,0)" xlink:href="#M"/><use transform="matrix(0.05,0,0,0.05,38.550000000000004,0)" xlink:href="#K"/><use transform="matrix(0.05,0,0,0.05,48.550000000000004,0)" xlink:href="#E"/><use transform="matrix(0.05,0,0,0.05,58.550000000000004,0)" xlink:href="#L"/><use transform="matrix(0.05,0,0,0.05,62.5,0)" xlink:href="#M"/><use transform="matrix(0.05,0,0,0.05,66.45,0)" xlink:href="#L"/><use transform="matrix(0.05,0,0,0.05,70.4,0)" xlink:href="#N"/><use transform="matrix(0.05,0,0,0.05,75.4,0)" xlink:href="#O"/></g><path d="M209 0H11v-25l151-195H24v-28h176v25L50-27h159V0" id="P"/><path d="M100-194c62-1 85 37 85 99 1 63-27 99-86 99S16-35 15-95c0-66 28-99 85-99zM99-20c44 1 53-31 53-75 0-43-8-75-51-75s-53 32-53 75 10 74 51 75" id="Q"/><path d="M117-194c89-4 53 116 60 194h-32v-121c0-31-8-49-39-48C34-167 62-67 57 0H25l-1-190h30c1 10-1 24 2 32 11-22 29-35 61-36" id="R"/><g id="d"><use transform="matrix(0.05,0,0,0.05,0,0)" xlink:href="#P"/><use transform="matrix(0.05,0,0,0.05,10.950000000000001,0)" xlink:href="#Q"/><use transform="matrix(0.05,0,0,0.05,20.950000000000003,0)" xlink:href="#R"/><use transform="matrix(0.05,0,0,0.05,30.950000000000003,0)" xlink:href="#D"/></g><path d="M27 0v-27h64v-190l-56 39v-29l58-41h29v221h61V0H27" id="S"/><use transform="matrix(0.05,0,0,0.05,0,0)" xlink:href="#S" id="e"/><path d="M101-251c82-7 93 87 43 132L82-64C71-53 59-42 53-27h129V0H18c2-99 128-94 128-182 0-28-16-43-45-43s-46 15-49 41l-32-3c6-41 34-60 81-64" id="T"/><use transform="matrix(0.05,0,0,0.05,0,0)" xlink:href="#T" id="f"/><path d="M114-163C36-179 61-72 57 0H25l-1-190h30c1 12-1 29 2 39 6-27 23-49 58-41v29" id="U"/><g id="g"><use transform="matrix(0.05,0,0,0.05,0,0)" xlink:href="#G"/><use transform="matrix(0.05,0,0,0.05,12,0)" xlink:href="#U"/><use transform="matrix(0.05,0,0,0.05,17.95,0)" xlink:href="#L"/><use transform="matrix(0.05,0,0,0.05,21.9,0)" xlink:href="#J"/><use transform="matrix(0.05,0,0,0.05,30.899999999999995,0)" xlink:href="#K"/><use transform="matrix(0.05,0,0,0.05,40.9,0)" xlink:href="#N"/><use transform="matrix(0.05,0,0,0.05,45.9,0)" xlink:href="#D"/></g><path d="M185-189c-5-48-123-54-124 2 14 75 158 14 163 119 3 78-121 87-175 55-17-10-28-26-33-46l33-7c5 56 141 63 141-1 0-78-155-14-162-118-5-82 145-84 179-34 5 7 8 16 11 25" id="V"/><path d="M143 4C61 4 22-44 18-125c-5-107 100-154 193-111 17 8 29 25 37 43l-32 9c-13-25-37-40-76-40-61 0-88 39-88 99 0 61 29 100 91 101 35 0 62-11 79-27v-45h-74v-28h105v86C228-13 192 4 143 4" id="W"/><g id="h"><use transform="matrix(0.05,0,0,0.05,0,0)" xlink:href="#V"/><use transform="matrix(0.05,0,0,0.05,12,0)" xlink:href="#W"/></g><path d="M84 4C-5 8 30-112 23-190h32v120c0 31 7 50 39 49 72-2 45-101 50-169h31l1 190h-30c-1-10 1-25-2-33-11 22-28 36-60 37" id="X"/><path d="M96-169c-40 0-48 33-48 73s9 75 48 75c24 0 41-14 43-38l32 2c-6 37-31 61-74 61-59 0-76-41-82-99-10-93 101-131 147-64 4 7 5 14 7 22l-32 3c-4-21-16-35-41-35" id="Y"/><g id="i"><use transform="matrix(0.05,0,0,0.05,0,0)" xlink:href="#G"/><use transform="matrix(0.05,0,0,0.05,12,0)" xlink:href="#X"/><use transform="matrix(0.05,0,0,0.05,22,0)" xlink:href="#E"/><use transform="matrix(0.05,0,0,0.05,32,0)" xlink:href="#M"/><use transform="matrix(0.05,0,0,0.05,35.95,0)" xlink:href="#L"/><use transform="matrix(0.05,0,0,0.05,39.900000000000006,0)" xlink:href="#Y"/></g><path d="M233-177c-1 41-23 64-60 70L243 0h-38l-65-103H63V0H30v-248c88 3 205-21 203 71zM63-129c60-2 137 13 137-47 0-61-80-42-137-45v92" id="Z"/><path d="M127-220V0H93v-220H8v-28h204v28h-85" id="aa"/><g id="j"><use transform="matrix(0.05,0,0,0.05,0,0)" xlink:href="#Z"/><use transform="matrix(0.05,0,0,0.05,12.600000000000001,0)" xlink:href="#aa"/></g><path d="M135-143c-3-34-86-38-87 0 15 53 115 12 119 90S17 21 10-45l28-5c4 36 97 45 98 0-10-56-113-15-118-90-4-57 82-63 122-42 12 7 21 19 24 35" id="ab"/><g id="k"><use transform="matrix(0.05,0,0,0.05,0,0)" xlink:href="#ab"/><use transform="matrix(0.05,0,0,0.05,9,0)" xlink:href="#X"/><use transform="matrix(0.05,0,0,0.05,19,0)" xlink:href="#E"/><use transform="matrix(0.05,0,0,0.05,29,0)" xlink:href="#R"/><use transform="matrix(0.05,0,0,0.05,39,0)" xlink:href="#D"/><use transform="matrix(0.05,0,0,0.05,49,0)" xlink:href="#N"/></g><path d="M160-131c35 5 61 23 61 61C221 17 115-2 30 0v-248c76 3 177-17 177 60 0 33-19 50-47 57zm-97-11c50-1 110 9 110-42 0-47-63-36-110-37v79zm0 115c55-2 124 14 124-45 0-56-70-42-124-44v89" id="ac"/><g id="l"><use transform="matrix(0.05,0,0,0.05,0,0)" xlink:href="#ac"/><use transform="matrix(0.05,0,0,0.05,12,0)" xlink:href="#K"/><use transform="matrix(0.05,0,0,0.05,22,0)" xlink:href="#ab"/><use transform="matrix(0.05,0,0,0.05,31,0)" xlink:href="#N"/><use transform="matrix(0.05,0,0,0.05,36,0)" xlink:href="#L"/><use transform="matrix(0.05,0,0,0.05,39.95,0)" xlink:href="#Q"/><use transform="matrix(0.05,0,0,0.05,49.95,0)" xlink:href="#R"/></g><path d="M106-169C34-169 62-67 57 0H25v-261h32l-1 103c12-21 28-36 61-36 89 0 53 116 60 194h-32v-121c2-32-8-49-39-48" id="ad"/><g id="m"><use transform="matrix(0.05,0,0,0.05,0,0)" xlink:href="#ad"/><use transform="matrix(0.05,0,0,0.05,10,0)" xlink:href="#Q"/><use transform="matrix(0.05,0,0,0.05,20,0)" xlink:href="#ab"/><use transform="matrix(0.05,0,0,0.05,29,0)" xlink:href="#N"/></g><path d="M33 0v-248h34V0H33" id="ae"/><g id="n"><use transform="matrix(0.05,0,0,0.05,0,0)" xlink:href="#ae"/><use transform="matrix(0.05,0,0,0.05,5,0)" xlink:href="#R"/><use transform="matrix(0.05,0,0,0.05,15,0)" xlink:href="#N"/><use transform="matrix(0.05,0,0,0.05,20,0)" xlink:href="#D"/><use transform="matrix(0.05,0,0,0.05,30,0)" xlink:href="#U"/><use transform="matrix(0.05,0,0,0.05,35.95,0)" xlink:href="#R"/><use transform="matrix(0.05,0,0,0.05,45.95,0)" xlink:href="#D"/><use transform="matrix(0.05,0,0,0.05,55.95,0)" xlink:href="#N"/></g><path d="M177-190C167-65 218 103 67 71c-23-6-38-20-44-43l32-5c15 47 100 32 89-28v-30C133-14 115 1 83 1 29 1 15-40 15-95c0-56 16-97 71-98 29-1 48 16 59 35 1-10 0-23 2-32h30zM94-22c36 0 50-32 50-73 0-42-14-75-50-75-39 0-46 34-46 75s6 73 46 73" id="af"/><path d="M206 0h-36l-40-164L89 0H53L-1-190h32L70-26l43-164h34l41 164 42-164h31" id="ag"/><g id="o"><use transform="matrix(0.05,0,0,0.05,0,0)" xlink:href="#af"/><use transform="matrix(0.05,0,0,0.05,10,0)" xlink:href="#K"/><use transform="matrix(0.05,0,0,0.05,20,0)" xlink:href="#N"/><use transform="matrix(0.05,0,0,0.05,25,0)" xlink:href="#D"/><use transform="matrix(0.05,0,0,0.05,35,0)" xlink:href="#ag"/><use transform="matrix(0.05,0,0,0.05,47.95,0)" xlink:href="#K"/><use transform="matrix(0.05,0,0,0.05,57.95,0)" xlink:href="#O"/></g><g id="p"><use transform="matrix(0.05,0,0,0.05,0,0)" xlink:href="#ab"/><use transform="matrix(0.05,0,0,0.05,9,0)" xlink:href="#D"/><use transform="matrix(0.05,0,0,0.05,19,0)" xlink:href="#U"/><use transform="matrix(0.05,0,0,0.05,24.95,0)" xlink:href="#J"/><use transform="matrix(0.05,0,0,0.05,33.95,0)" xlink:href="#D"/><use transform="matrix(0.05,0,0,0.05,43.95,0)" xlink:href="#U"/></g><g id="q"><use transform="matrix(0.05,0,0,0.05,0,0)" xlink:href="#I"/><use transform="matrix(0.05,0,0,0.05,12,0)" xlink:href="#X"/><use transform="matrix(0.05,0,0,0.05,22,0)" xlink:href="#N"/><use transform="matrix(0.05,0,0,0.05,27,0)" xlink:href="#Q"/></g><g id="r"><use transform="matrix(0.05,0,0,0.05,0,0)" xlink:href="#V"/><use transform="matrix(0.05,0,0,0.05,12,0)" xlink:href="#Y"/><use transform="matrix(0.05,0,0,0.05,21,0)" xlink:href="#K"/><use transform="matrix(0.05,0,0,0.05,31,0)" xlink:href="#M"/><use transform="matrix(0.05,0,0,0.05,34.95,0)" xlink:href="#L"/><use transform="matrix(0.05,0,0,0.05,38.900000000000006,0)" xlink:href="#R"/><use transform="matrix(0.05,0,0,0.05,48.900000000000006,0)" xlink:href="#af"/></g><path d="M115-194c55 1 70 41 70 98S169 2 115 4C84 4 66-9 55-30l1 105H24l-1-265h31l2 30c10-21 28-34 59-34zm-8 174c40 0 45-34 45-75s-6-73-45-74c-42 0-51 32-51 76 0 43 10 73 51 73" id="ah"/><g id="s"><use transform="matrix(0.05,0,0,0.05,0,0)" xlink:href="#af"/><use transform="matrix(0.05,0,0,0.05,10,0)" xlink:href="#U"/><use transform="matrix(0.05,0,0,0.05,15.949999999999998,0)" xlink:href="#Q"/><use transform="matrix(0.05,0,0,0.05,25.950000000000003,0)" xlink:href="#X"/><use transform="matrix(0.05,0,0,0.05,35.95,0)" xlink:href="#ah"/></g><g id="t"><use transform="matrix(0.05,0,0,0.05,0,0)" xlink:href="#I"/><use transform="matrix(0.05,0,0,0.05,12,0)" xlink:href="#ah"/><use transform="matrix(0.05,0,0,0.05,22,0)" xlink:href="#ah"/><use transform="matrix(0.05,0,0,0.05,32,0)" xlink:href="#M"/><use transform="matrix(0.05,0,0,0.05,35.95,0)" xlink:href="#L"/><use transform="matrix(0.05,0,0,0.05,39.900000000000006,0)" xlink:href="#Y"/><use transform="matrix(0.05,0,0,0.05,48.900000000000006,0)" xlink:href="#K"/><use transform="matrix(0.05,0,0,0.05,58.900000000000006,0)" xlink:href="#N"/><use transform="matrix(0.05,0,0,0.05,63.900000000000006,0)" xlink:href="#L"/><use transform="matrix(0.05,0,0,0.05,67.85000000000001,0)" xlink:href="#Q"/><use transform="matrix(0.05,0,0,0.05,77.85000000000001,0)" xlink:href="#R"/></g><path d="M30 0v-248h33v221h125V0H30" id="ai"/><path d="M85-194c31 0 48 13 60 33l-1-100h32l1 261h-30c-2-10 0-23-3-31C134-8 116 4 85 4 32 4 16-35 15-94c0-66 23-100 70-100zm9 24c-40 0-46 34-46 75 0 40 6 74 45 74 42 0 51-32 51-76 0-42-9-74-50-73" id="aj"/><g id="u"><use transform="matrix(0.05,0,0,0.05,0,0)" xlink:href="#ai"/><use transform="matrix(0.05,0,0,0.05,10,0)" xlink:href="#Q"/><use transform="matrix(0.05,0,0,0.05,20,0)" xlink:href="#K"/><use transform="matrix(0.05,0,0,0.05,30,0)" xlink:href="#aj"/></g><g id="v"><use transform="matrix(0.05,0,0,0.05,0,0)" xlink:href="#ac"/><use transform="matrix(0.05,0,0,0.05,12,0)" xlink:href="#K"/><use transform="matrix(0.05,0,0,0.05,22,0)" xlink:href="#M"/><use transform="matrix(0.05,0,0,0.05,25.950000000000003,0)" xlink:href="#K"/><use transform="matrix(0.05,0,0,0.05,35.95,0)" xlink:href="#R"/><use transform="matrix(0.05,0,0,0.05,45.95,0)" xlink:href="#Y"/><use transform="matrix(0.05,0,0,0.05,54.95,0)" xlink:href="#D"/><use transform="matrix(0.05,0,0,0.05,64.95,0)" xlink:href="#U"/></g><path d="M30 0v-248h187v28H63v79h144v27H63v87h162V0H30" id="ak"/><g id="w"><use transform="matrix(0.05,0,0,0.05,0,0)" xlink:href="#ak"/><use transform="matrix(0.05,0,0,0.05,12,0)" xlink:href="#ai"/><use transform="matrix(0.05,0,0,0.05,22,0)" xlink:href="#ac"/></g><g id="x"><use transform="matrix(0.05,0,0,0.05,0,0)" xlink:href="#ag"/><use transform="matrix(0.05,0,0,0.05,12.950000000000001,0)" xlink:href="#D"/><use transform="matrix(0.05,0,0,0.05,22.950000000000003,0)" xlink:href="#E"/></g><g id="y"><use transform="matrix(0.05,0,0,0.05,0,0)" xlink:href="#F"/><use transform="matrix(0.05,0,0,0.05,12,0)" xlink:href="#G"/><use transform="matrix(0.05,0,0,0.05,24,0)" xlink:href="#H"/></g><path d="M190 0L58-211 59 0H30v-248h39L202-35l-2-213h31V0h-41" id="al"/><g id="z"><use transform="matrix(0.05,0,0,0.05,0,0)" xlink:href="#al"/><use transform="matrix(0.05,0,0,0.05,12.950000000000001,0)" xlink:href="#I"/><use transform="matrix(0.05,0,0,0.05,23.6,0)" xlink:href="#aa"/></g><g id="A"><use transform="matrix(0.05,0,0,0.05,0,0)" xlink:href="#Y"/><use transform="matrix(0.05,0,0,0.05,9,0)" xlink:href="#M"/><use transform="matrix(0.05,0,0,0.05,12.949999999999998,0)" xlink:href="#L"/><use transform="matrix(0.05,0,0,0.05,16.9,0)" xlink:href="#D"/><use transform="matrix(0.05,0,0,0.05,26.899999999999995,0)" xlink:href="#R"/><use transform="matrix(0.05,0,0,0.05,36.9,0)" xlink:href="#N"/><use transform="matrix(0.05,0,0,0.05,41.9,0)" xlink:href="#ab"/></g><path d="M197 0v-115H63V0H30v-248h33v105h134v-105h34V0h-34" id="am"/><g id="B"><use transform="matrix(0.05,0,0,0.05,0,0)" xlink:href="#V"/><use transform="matrix(0.05,0,0,0.05,12,0)" xlink:href="#V"/><use transform="matrix(0.05,0,0,0.05,24,0)" xlink:href="#am"/></g></defs></g></svg>